<?xml version="1.0" encoding="utf-8"?>
<!-- Generator: Adobe Illustrator 26.0.1, SVG Export Plug-In . SVG Version: 6.00 Build 0)  -->
<svg version="1.1" id="Слой_1" xmlns="http://www.w3.org/2000/svg" xmlns:xlink="http://www.w3.org/1999/xlink" x="0px" y="0px"
	 viewBox="0 0 100 100" style="enable-background:new 0 0 100 100;" xml:space="preserve">
<style type="text/css">
	<!-- .st0{fill:#69BA7B;}
	.st1{fill:#6ABA7B;}
	.st2{fill:#6CBB7D;}
	.st3{fill:#6EBB7E;} -->
	.st0{fill:#292929;}
	.st1{fill:#292929;}
	.st2{fill:#292929;}
	.st3{fill:#292929;}
</style>
<g>
	<path class="st0" d="M70.6,41.1c5.3,0,10.7-0.1,16,0c5.8,0.1,9.4,3.7,9.5,9.6c0.1,8.3,0.3,16.6-0.1,24.9
		c-0.7,14.5-12.4,24.6-26,24.4c-16-0.3-25.5-13.9-25.2-25.2c0.2-7.7,0-15.3,0-23c0.1-7.5,3.4-10.7,11-10.7
		C60.8,41,65.7,41.1,70.6,41.1z"/>
	<path class="st1" d="M52.5,17.7C52.7,8.1,61,0.2,70.6,0c8.9-0.1,18.3,8.6,17.8,18.6C88,28.1,79.7,36.1,70,35.9
		C60.5,35.7,52.4,27.3,52.5,17.7z"/>
	<path class="st2" d="M42.3,41.4c-1,2.4-1.9,4.6-3.1,7.3c-8.8,0-17.9,0-27.6,0c0,8.1-0.8,15.8,0.2,23.3C13.4,83.7,25.4,90,36.4,85.7
		c1.4-0.5,2.6-1.3,4.4-2.2c1,2,2,4,2.9,5.9c-4.5,6.6-18.7,6.9-25.6,3C9.1,87.3,3.9,79.9,3.8,69.3c-0.1-6.4-0.1-12.8,0-19.2
		c0.1-4.8,3.6-8.8,8.2-8.9c8.7-0.2,17.5-0.1,26.2-0.1C39.5,41.1,40.8,41.3,42.3,41.4z"/>
	<path class="st3" d="M47.4,18.3c0.3,9-8.8,17.8-18.1,17.8c-8.7,0-18.4-8.6-17.9-18.6C11.9,7.9,20.2-0.1,29.9,0
		C39.4,0.2,47.5,8.6,47.4,18.3z M29.4,7.7c-5.7,0-10.1,4.3-10.2,9.9c-0.2,5.9,4.3,10.6,10.3,10.5c5.7,0,10.1-4.3,10.2-9.9
		C39.8,12.4,35.3,7.7,29.4,7.7z"/>
</g>
</svg>
