<?xml version="1.0" encoding="utf-8"?>
<!-- Generator: Adobe Illustrator 26.0.1, SVG Export Plug-In . SVG Version: 6.00 Build 0)  -->
<svg version="1.1" id="Слой_1" xmlns="http://www.w3.org/2000/svg" xmlns:xlink="http://www.w3.org/1999/xlink" x="0px" y="0px"
	 viewBox="0 0 100 100" style="enable-background:new 0 0 100 100;" xml:space="preserve">
<style type="text/css">
	.st0{fill:#191919;}
</style>
<path class="st0" d="M100,1.5c-0.1,0.5-0.1,1.1-0.2,1.6c-7.2,31.3-14.5,62.5-21.7,93.8c-0.3,1.3-0.8,1.6-2.1,1.6
	c-24.3,0-48.7,0-73,0c-1.7,0-1.8-0.1-2-1.8c-0.2-2.3-0.5-4.5-0.7-6.8c0-0.3-0.3-0.6-0.4-0.9c0-4.3,0-8.6,0-12.9
	c0.1-0.4,0.4-0.8,0.4-1.2c0.2-1.7,0.3-3.5,0.6-5.2C2.8,56.3,7.4,44,14.2,32.3c6.4-10.9,14.3-20.6,23.1-29.5c0.4-0.4,0.7-0.9,1-1.3
	C58.9,1.5,79.4,1.5,100,1.5z M42.3,24c0-0.1-0.1-0.2-0.1-0.2c-3.9,0-7.7,0-11.6,0c-0.6,0-1.3,0.3-1.6,0.8
	c-7,9.3-12.7,19.2-16.3,30.3c-0.1,0.4-0.2,0.8-0.3,1.2c0.4,0,0.6,0,0.7-0.1c7.5-2,15.1-3.9,22.6-6c0.4-0.1,0.9-0.8,1.1-1.2
	c0.9-3.5,1.6-7,2.4-10.5C40.2,33.5,41.2,28.8,42.3,24z M50.5,76.7C50.5,76.8,50.5,76.8,50.5,76.7c2-0.1,4-0.3,6-0.4
	c5.8-0.4,11.5-0.8,17.3-1.2c0.9-0.1,1.3-0.4,1.5-1.3c0.8-3.7,1.7-7.3,2.5-10.9c0.8-3.5,1.6-7.1,2.4-10.6c0.3-1.1,0.1-1.3-1.1-1.2
	c-0.2,0-0.4,0.1-0.6,0.1c-8.8,1.3-17.5,2.6-26.3,4c-4.3,0.7-8.6,1.1-12.8,2.1c-8.7,2.1-17.3,4.4-26,6.8c-4.5,1.2-3.5,0-4.3,4.6
	c-0.5,3.2-0.7,6.5-1,9.7c-0.1,1,0.3,1.3,1.3,1.2c1.1-0.1,2.2-0.1,3.3-0.2c6.1-0.4,12.3-0.9,18.4-1.3c2.6-0.2,5.2-0.3,7.8-0.5
	C42.8,77.4,46.6,77,50.5,76.7z M45.1,48.1c0.5,0,0.8,0,1,0c11.8-1.8,23.5-3.6,35.3-5.3c0.9-0.1,1.2-0.6,1.3-1.4
	c1.2-5.4,2.5-10.8,3.8-16.2c0.3-1.3,0.2-1.4-1.1-1.4c-11.1,0-22.3,0-33.4,0c-1,0-1.5,0.3-1.7,1.3c-1.5,6.6-3,13.3-4.5,19.9
	C45.6,46,45.4,46.9,45.1,48.1z M40,90.4c8.5,0,17.1,0,25.6,0c1.5,0,3.1,0,4.6,0c0.8,0,1.3-0.2,1.4-1.1c0.3-1.7,0.7-3.4,1.2-5.1
	c0.2-0.9-0.1-1.1-0.9-1c-1.1,0.1-2.2,0.2-3.3,0.3c-4.3,0.3-8.7,0.5-13,0.8c-4.4,0.3-8.7,0.7-13.1,1c-6.5,0.4-13,0.8-19.4,1.3
	c-4.4,0.3-8.8,0.7-13.2,1c-1.7,0.1-1.7,0.1-1.6,1.7c0.1,1.2,0.8,1.1,1.6,1.1C20,90.4,30,90.4,40,90.4z M36.3,15.8c0.8,0,1.3,0,1.8,0
	c15.6,0,31.3,0,46.9,0c0.8,0,1.6,0,2.4,0c1,0.1,1.5-0.3,1.6-1.2c0.2-1.2,0.5-2.4,0.8-3.5c0.3-1.3,0.2-1.4-1.1-1.4
	c-15.3,0-30.6,0-45.9,0c-0.6,0-1.3,0.3-1.7,0.7c-1.4,1.4-2.8,2.9-4.1,4.4C36.8,15,36.7,15.2,36.3,15.8z"/>
</svg>
