<?xml version="1.0" encoding="utf-8"?>
<!-- Generator: Adobe Illustrator 26.0.1, SVG Export Plug-In . SVG Version: 6.00 Build 0)  -->
<svg version="1.1" id="Слой_1" xmlns="http://www.w3.org/2000/svg" xmlns:xlink="http://www.w3.org/1999/xlink" x="0px" y="0px"
	 viewBox="0 0 100 100" style="enable-background:new 0 0 100 100;" xml:space="preserve">
<style type="text/css">
	.st0{fill:none;}
	.st1{fill:#6BBA7D;}
</style>
<path class="st0" d="M0,100V0h100v100H0z"/>
<path class="st1" d="M79.4,100c-10.7,0-18-4.5-25.1-9.1c-7.8-5.1-14.7-11.5-21.3-18c-8.7-8.4-17.3-17.1-23.9-27.3
	c-3.3-5.1-5.8-10.7-7.8-16.5C-2.8,18.2,3.4,4.9,14.2,0.9c4.4-1.6,6.2-1.5,8.6,2.2c4.5,7.3,8.8,14.7,13.1,21.9
	c1.5,2.3,0.4,4.6-0.9,6.7c-1.7,2.9-3.5,5.7-4.9,8.6c-0.6,1.3-0.7,3.5,0,4.5c7,9.1,14.8,17.7,24.1,24.5c2.3,1.7,4.1,1.9,6.4,0.3
	c2.8-1.7,5.8-3,8.6-4.9c2-1.3,4.1-1.6,6.1-0.4c7.1,4.2,14.4,8.3,21.3,12.6c4.1,2.6,4.4,4.5,2.5,9C95,95.5,87.6,99.6,79.4,100z"/>
</svg>
