<?xml version="1.0" encoding="utf-8"?>
<!-- Generator: Adobe Illustrator 26.0.1, SVG Export Plug-In . SVG Version: 6.00 Build 0)  -->
<svg version="1.1" id="Слой_1" xmlns="http://www.w3.org/2000/svg" xmlns:xlink="http://www.w3.org/1999/xlink" x="0px" y="0px"
	 viewBox="0 0 500 500" style="enable-background:new 0 0 500 500;" xml:space="preserve">
<style type="text/css">
	.st0{fill:#8B8B8B;}
</style>
<path class="st0" d="M218.3,0c13,2.5,26.5,3.8,39,7.8c75.8,24.5,123.8,75.5,140.6,153.6c12.4,58.1-0.8,111.7-35.6,159.9
	c-0.7,0.9-1.2,2-2.5,4c1.4,0.9,3.1,1.7,4.3,3c42.4,42.2,84.6,84.6,126.9,126.8c9.6,9.6,11.5,22.3,5,32.8c-8.5,13.6-27.1,16-38.8,5.2
	c-4-3.8-7.8-7.8-11.7-11.7c-39.2-39.2-78.3-78.3-117.5-117.5c-1.2-1.2-2.3-2.2-3.6-3.4c-3.3,2.2-6.3,4.4-9.4,6.5
	c-28.5,19.4-59.9,30.9-94.5,34.4C120.2,411.5,26,344.8,4.1,243.6c-1.8-8.2-2.7-16.5-4-24.9c0-12,0-24.1,0-36.1c1.2-7,2-14.1,3.5-21
	C22.1,81.7,70.6,30,149.1,6.6c11.1-3.3,22.8-4.4,34.3-6.5C194.9,0,206.6,0,218.3,0z M200.9,351.2c82.4,0.5,150.3-67.1,150.3-150.3
	c0-83.8-68.7-150.5-150.6-150.5c-77.9,0.1-150.4,62.4-150.4,150.4C50.1,288,121.5,352,200.9,351.2z"/>
</svg>
