<?xml version="1.0" encoding="utf-8"?>
<!-- Generator: Adobe Illustrator 26.0.1, SVG Export Plug-In . SVG Version: 6.00 Build 0)  -->
<svg version="1.1" id="Слой_1" xmlns="http://www.w3.org/2000/svg" xmlns:xlink="http://www.w3.org/1999/xlink" x="0px" y="0px"
	 viewBox="0 0 100 100" style="enable-background:new 0 0 100 100;" xml:space="preserve">
<style type="text/css">
	.st0{fill:#837BFD;}
</style>
<g>
	<path class="st0" d="M76.9,98.8c-1-1.2-1.9-2.4-2.8-3.6c-1.9,0-3.8,0-5.6,0c-2.7-0.1-3.4-0.8-3.6-3.4c-0.1-1.2,0-2.3,0-3.6
		c-1.9-1.1-3.8-2.1-5.7-3.2c-0.7-2.7-0.7-5.5,2.8-7.5c-2.5-2.3-3.8-4.9-2.8-8.1c1.7-1,3.6-2.1,5.5-3c0.8-7.4-0.4-7.3,7.5-7.2
		c0.6,0,1.2,0,1.8,0c4.2-5.1,6.6-5.1,10.8,0c1.8,0,3.6,0,5.3,0c2.7,0.1,3.4,0.8,3.6,3.4c0.1,1.1,0,2.3,0,3.6
		c1.9,1.1,3.8,2.1,5.8,3.2c0.7,2.8,0.6,5.5-2.8,7.6c2.7,2.3,3.8,4.9,2.9,8c-1.8,1-3.8,2.1-5.6,3c-0.7,7.3,0.5,7.3-7.5,7.2
		c-0.6,0-1.2,0-1.9,0c-0.8,1.2-1.8,2.4-2.8,3.6C80.2,98.8,78.6,98.8,76.9,98.8z"/>
	<path class="st0" d="M93.9,16.4c0-3.6-1.6-6.2-5-7.4c-1.2-0.5-2.7-0.5-4-0.5c-9,0-17.8,0-27,0c-1-5.6-4.4-7.6-9.5-7.2
		c-0.8,0-1.6,0.1-2.4,0c-5.2-0.5-9,1.2-10.2,7.2c-9.3,0-18.3,0-27.4,0C2.7,8.5,0,11.2,0,16.9c0,9.8,0,19.5,0,29.5c0,6.6,2.5,9,9,9
		c16,0,32,0,48.1,0c2.2,0,4,0,5.8-1.9c1.2-1.3,3.5-2.2,5.8-1.7c1.5,0.2,2.8-0.1,4.2-1.2c3.9-3.3,8.4-3.6,13,0.2
		c1.2,1.1,2.4,1.2,3.8,1.1c1.5-0.2,2.8-0.7,4-1.2C93.9,38.8,93.7,27.5,93.9,16.4z M46.9,48.5c-2.2,0-3.9-1.8-3.9-3.9
		c0-2.1,1.8-3.9,3.9-3.9c2.2,0,3.9,1.8,3.9,3.9C50.8,46.7,49.1,48.5,46.9,48.5z"/>
	<path class="st0" d="M51.3,80.8c-14.4,0-28.7,0-42.8,0c-3.4,0-6.4-0.6-7.6-4.5c-0.2-0.8-0.8-1.7-0.8-2.7c-0.1-3.9,0-7.9,0-12.3
		c9.2,2.5,18.3,1.1,27.4,1.3c9.1,0.2,18.3,0,28.3,0c-3.9,4.4-5.3,8.9-2.8,14.1C53.1,77.5,51.9,79.1,51.3,80.8z"/>
</g>
</svg>
